# xmcd
# 
# Track frame offsets:
#     182
#     20297
#     39760
#     59710
#     76662
#     104047
#     125480
#     143125
#     160880
#     177255
# 
# Disc length: 2639
# 
# Revision: 4
# Processed by: cddbd v1.5.2PL0 Copyright (c) Steve Scherf et al.
# Submitted via: BonkEnc v1.0.6
# 
DISCID=7e0a4d0a
DTITLE=SAXON - Destiny
DYEAR=1988
DGENRE=Hard Rock
TTITLE0=Ride Like The Wind
TTITLE1=Where The Lightning Strikes
TTITLE2=I Can't Wait Anymore
TTITLE3=Calm Before The Storm
TTITLE4=S.O.S.
TTITLE5=Song For Emma
TTITLE6=For Whom The Bell Tolls
TTITLE7=We Are Strong
TTITLE8=Jericho Siren
TTITLE9=Red Alert
EXTD=YEAR: 1988
EXTT0=
EXTT1=
EXTT2=
EXTT3=
EXTT4=
EXTT5=
EXTT6=
EXTT7=
EXTT8=
EXTT9=
PLAYORDER=
